<svg xmlns="http://www.w3.org/2000/svg" viewBox="0 0 100 100" fill="none">
  <circle cx="50" cy="50" r="45" fill="#22c55e" />
  <path d="M30 35C30 32.2386 32.2386 30 35 30H65C67.7614 30 70 32.2386 70 35V65C70 67.7614 67.7614 70 65 70H35C32.2386 70 30 67.7614 30 65V35Z" fill="white"/>
  <path d="M40 45C40 42.7909 41.7909 41 44 41H56C58.2091 41 60 42.7909 60 45V55C60 57.2091 58.2091 59 56 59H44C41.7909 59 40 57.2091 40 55V45Z" fill="#22c55e"/>
  <path d="M50 25C52.7614 25 55 27.2386 55 30V35H45V30C45 27.2386 47.2386 25 50 25Z" fill="#22c55e"/>
  <path d="M25 50C25 47.2386 27.2386 45 30 45H35V55H30C27.2386 55 25 52.7614 25 50Z" fill="#22c55e"/>
  <path d="M65 45H70C72.7614 45 75 47.2386 75 50C75 52.7614 72.7614 55 70 55H65V45Z" fill="#22c55e"/>
  <path d="M45 65V70C45 72.7614 47.2386 75 50 75C52.7614 75 55 72.7614 55 70V65H45Z" fill="#22c55e"/>
</svg>
